<svg xmlns="http://www.w3.org/2000/svg" height="24" viewBox="0 -960 960 960" width="24" fill="currentColor"><path d="M480-80q-82 0-155-31.5t-127.5-86Q143-252 111.5-325T80-480q0-83 31.5-155.5t86-127Q252-817 325-848.5T480-880q83 0 155.5 31.5t127 86q54.5 54.5 86 127T880-480q0 82-31.5 155t-86 127.5q-54.5 54.5-127 86T480-80Zm0-82q26-36 45-75t31-83H404q12 44 31 83t45 75Zm-104-16q-18-33-31.5-68.5T322-320H200q29 55 75 95.5t101 48.5Zm208 0q55-9 101-49.5t75-95.5H638q-9 39-22.5 74.5T584-178ZM170-400h136q-3-20-4.5-39.5T300-480q0-21 1.5-40.5t4.5-39.5H170q-10 20-15 39.5t-5 40.5q0 21 5 40.5t15 39.5Zm210 0h200q3-20 4.5-39.5T590-480q0-21-1.5-40.5t-4.5-39.5H380q-3 20-4.5 39.5T370-480q0 21 1.5 40.5t4.5 39.5Zm244 0h136q10-19 15-39.5t5-40.5q0-21-5-40.5t-15-39.5H624q3 20 4.5 39.5T630-480q0 21-1.5 40.5t-4.5 39.5Zm-92-240h128q-29-55-75-95.5t-101-48.5q18 33 31.5 68.5T522-640Zm-244 0h128q12-44 31-83t45-75q-26 36-45 75t-31 83Zm126 0h152q-12-44-31-83t-45-75q-26 36-45 75t-31 83Z"/></svg>